<svg width="21" height="20" viewBox="0 0 21 20" fill="none" xmlns="http://www.w3.org/2000/svg">
<path d="M20.3129 10.2102C20.3129 9.44107 19.6894 8.81756 18.9203 8.81756H11.957V1.85427C11.957 1.08512 11.3335 0.461609 10.5643 0.461609C9.79518 0.461609 9.17167 1.08512 9.17167 1.85427V8.81756H2.20838C1.43923 8.81756 0.815718 9.44107 0.815718 10.2102C0.815718 10.9794 1.43923 11.6029 2.20838 11.6029H9.17167V18.5662C9.17167 19.3353 9.79518 19.9588 10.5643 19.9588C11.3335 19.9588 11.957 19.3353 11.957 18.5662V11.6029H18.9203C19.6894 11.6029 20.3129 10.9794 20.3129 10.2102Z" fill="white"/>
</svg>
