<svg width="30" height="30" viewBox="0 0 30 30" fill="none" xmlns="http://www.w3.org/2000/svg">
<path fill-rule="evenodd" clip-rule="evenodd" d="M11.8306 12.2851C12.1741 12.0562 12.3803 11.6707 12.3803 11.258V6.32016C12.3803 4.27484 10.7223 2.61679 8.67697 2.61679L3.73915 2.61679C3.05738 2.61679 2.5047 3.16947 2.5047 3.85125C2.5047 16.1231 13.6875 27.3059 25.9593 27.3059C26.6411 27.3059 27.1938 26.7532 27.1938 26.0714V21.1336C27.1938 19.0883 25.5357 17.4302 23.4904 17.4302L18.5526 17.4302C18.1399 17.4302 17.7544 17.6365 17.5255 17.98L15.1734 21.508C12.6117 19.8516 10.3672 17.6638 8.64085 15.1452L8.30254 14.6372L11.8306 12.2851ZM19.2133 19.8992L23.4904 19.8992C24.1722 19.8992 24.7249 20.4519 24.7249 21.1336V24.7942C22.3335 24.6287 19.9996 23.9891 17.8228 22.9749L17.3232 22.7342L19.2133 19.8992ZM17.3182 7.55461C20.0452 7.55461 22.256 9.76535 22.256 12.4924C22.256 13.1742 21.7033 13.7269 21.0215 13.7269C20.3885 13.7269 19.8667 13.2503 19.7954 12.6364L19.7803 12.3082C19.686 11.0307 18.6197 10.0235 17.3182 10.0235C16.6364 10.0235 16.0837 9.47083 16.0837 8.78906C16.0837 8.10729 16.6364 7.55461 17.3182 7.55461ZM17.3182 2.6168C22.7723 2.6168 27.1938 7.03827 27.1938 12.4924C27.1938 13.1742 26.6411 13.7269 25.9594 13.7269C25.2776 13.7269 24.7249 13.1742 24.7249 12.4924C24.7249 8.40181 21.4088 5.08571 17.3182 5.08571C16.6364 5.08571 16.0837 4.53302 16.0837 3.85125C16.0837 3.16948 16.6364 2.6168 17.3182 2.6168ZM8.677 5.08571C9.35877 5.08571 9.91145 5.6384 9.91145 6.32017V10.5973L7.07638 12.4874C5.92271 10.1698 5.19464 7.66111 5.01644 5.08571H8.677Z" fill="white"/>
</svg>
